<svg xmlns="http://www.w3.org/2000/svg" viewBox="0 0 820 388" font-family="'SF Mono','JetBrains Mono','Fira Code','Menlo','Consolas',monospace" font-size="15">
  <!-- window -->
  <rect x="20" y="20" width="780" height="346" rx="12" fill="#E4E2DC" stroke="#CBC8BF" stroke-width="1"/>
  <!-- titlebar -->
  <path d="M32,20 h756 a12,12 0 0 1 12,12 v22 h-780 v-22 a12,12 0 0 1 12,-12 z" fill="#D9D6CE"/>
  <circle cx="48" cy="37" r="6.5" fill="#C7003D"/>
  <circle cx="70" cy="37" r="6.5" fill="#994F00"/>
  <circle cx="92" cy="37" r="6.5" fill="#036D5E"/>
  <text x="410" y="42" text-anchor="middle" fill="#66635C" font-size="13" letter-spacing="0.4">Ghost of Panda Light</text>

  <!-- palette swatch band (ANSI 0-15) -->
  <g stroke="#CBC8BF">
    <rect x="48"  y="72" width="40" height="22" rx="4" fill="#373B41"/>
    <rect x="93"  y="72" width="40" height="22" rx="4" fill="#C7003D"/>
    <rect x="138" y="72" width="40" height="22" rx="4" fill="#036D5E"/>
    <rect x="183" y="72" width="40" height="22" rx="4" fill="#994F00"/>
    <rect x="228" y="72" width="40" height="22" rx="4" fill="#0665B2"/>
    <rect x="273" y="72" width="40" height="22" rx="4" fill="#C2005A"/>
    <rect x="318" y="72" width="40" height="22" rx="4" fill="#0C6E74"/>
    <rect x="363" y="72" width="40" height="22" rx="4" fill="#8D8A81"/>
    <rect x="408" y="72" width="40" height="22" rx="4" fill="#66635C"/>
    <rect x="453" y="72" width="40" height="22" rx="4" fill="#C7003D"/>
    <rect x="498" y="72" width="40" height="22" rx="4" fill="#036D5E"/>
    <rect x="543" y="72" width="40" height="22" rx="4" fill="#994F00"/>
    <rect x="588" y="72" width="40" height="22" rx="4" fill="#0665B2"/>
    <rect x="633" y="72" width="40" height="22" rx="4" fill="#C2005A"/>
    <rect x="678" y="72" width="40" height="22" rx="4" fill="#0C6E74"/>
    <rect x="723" y="72" width="40" height="22" rx="4" fill="#AFADA7"/>
  </g>

  <!-- terminal session -->
  <text x="48" y="134" fill="#373B41"><tspan fill="#036D5E">&#10095; </tspan>ls</text>
  <text x="48" y="162" fill="#373B41"><tspan fill="#0665B2">assets/</tspan>  <tspan fill="#0665B2">themes/</tspan>  <tspan fill="#036D5E">preview.sh</tspan>  README.md  LICENSE</text>
  <text x="48" y="190" fill="#373B41"><tspan fill="#036D5E">&#10095; </tspan>git status -s</text>
  <text x="48" y="218" fill="#373B41"><tspan fill="#994F00"> M </tspan>themes/ghost-of-panda</text>
  <text x="48" y="246" fill="#373B41"><tspan fill="#C7003D">?? </tspan>assets/ghost-of-panda.svg</text>
  <text x="48" y="274" fill="#66635C"># comments and dim text stay readable</text>

  <!-- selection highlight -->
  <rect x="44" y="288" width="204" height="24" rx="3" fill="#C5C3BF"/>
  <text x="48" y="305" fill="#373B41">this text is selected</text>

  <!-- accent legend -->
  <text x="48" y="334" fill="#373B41"><tspan fill="#C7003D">error</tspan>  <tspan fill="#994F00">warn</tspan>  <tspan fill="#036D5E">ok</tspan>  <tspan fill="#0C6E74">info</tspan>  <tspan fill="#0665B2">link</tspan>  <tspan fill="#C2005A">hint</tspan></text>
</svg>
